<svg width="76" height="24" viewBox="0 0 76 24" fill="none" xmlns="http://www.w3.org/2000/svg">
<path d="M0.914062 21V0.375H6.36328C7.50391 0.375 8.40625 0.628906 9.07031 1.13672C9.74219 1.64453 10.2227 2.36719 10.5117 3.30469C10.8008 4.24219 10.9453 5.35938 10.9453 6.65625C10.9453 7.90625 10.8242 8.99609 10.582 9.92578C10.3398 10.8477 9.90625 11.5625 9.28125 12.0703C8.66406 12.5781 7.78516 12.832 6.64453 12.832H4.96875V21H0.914062ZM4.96875 9.12891H5.20312C5.96875 9.12891 6.4375 8.91406 6.60938 8.48438C6.78125 8.05469 6.86719 7.42188 6.86719 6.58594C6.86719 5.80469 6.78125 5.20312 6.60938 4.78125C6.44531 4.35156 6.05078 4.13672 5.42578 4.13672H4.96875V9.12891ZM17.2969 21.1875C13.7969 21.1875 12.0469 19.3711 12.0469 15.7383V8.68359C12.0469 7.02734 12.5117 5.70703 13.4414 4.72266C14.3711 3.73047 15.6562 3.23438 17.2969 3.23438C18.9453 3.23438 20.2344 3.73047 21.1641 4.72266C22.0938 5.70703 22.5586 7.02734 22.5586 8.68359V15.7383C22.5586 19.3711 20.8047 21.1875 17.2969 21.1875ZM17.2969 17.9531C17.6484 17.9531 17.8984 17.8281 18.0469 17.5781C18.2031 17.3203 18.2812 16.9961 18.2812 16.6055V8.01562C18.2812 6.99219 17.9531 6.48047 17.2969 6.48047C16.6406 6.48047 16.3125 6.99219 16.3125 8.01562V16.6055C16.3125 16.9961 16.3867 17.3203 16.5352 17.5781C16.6914 17.8281 16.9453 17.9531 17.2969 17.9531ZM24.1172 23.9297V3.42188H28.3828V5.29688C28.6406 4.64844 28.9961 4.14453 29.4492 3.78516C29.9102 3.41797 30.5664 3.23438 31.418 3.23438C32.5664 3.23438 33.375 3.65234 33.8438 4.48828C34.3203 5.32422 34.5586 6.41797 34.5586 7.76953V16.418C34.5586 17.3164 34.4297 18.1289 34.1719 18.8555C33.9219 19.5742 33.5234 20.1445 32.9766 20.5664C32.4375 20.9805 31.7305 21.1875 30.8555 21.1875C29.7148 21.1875 28.8906 20.5 28.3828 19.125V23.9297H24.1172ZM29.3789 17.918C29.8164 17.918 30.0781 17.6992 30.1641 17.2617C30.2578 16.8242 30.3047 16.2852 30.3047 15.6445V8.77734C30.3047 8.12891 30.2578 7.58984 30.1641 7.16016C30.0781 6.72266 29.8164 6.50391 29.3789 6.50391C28.9258 6.50391 28.6445 6.72656 28.5352 7.17188C28.4336 7.60938 28.3828 8.14453 28.3828 8.77734V15.6445C28.3828 16.2773 28.4336 16.8164 28.5352 17.2617C28.6445 17.6992 28.9258 17.918 29.3789 17.918ZM41.2734 21.1875C37.7734 21.1875 36.0234 19.3711 36.0234 15.7383V8.68359C36.0234 7.02734 36.4883 5.70703 37.418 4.72266C38.3477 3.73047 39.6328 3.23438 41.2734 3.23438C42.9219 3.23438 44.2109 3.73047 45.1406 4.72266C46.0703 5.70703 46.5352 7.02734 46.5352 8.68359V15.7383C46.5352 19.3711 44.7812 21.1875 41.2734 21.1875ZM41.2734 17.9531C41.625 17.9531 41.875 17.8281 42.0234 17.5781C42.1797 17.3203 42.2578 16.9961 42.2578 16.6055V8.01562C42.2578 6.99219 41.9297 6.48047 41.2734 6.48047C40.6172 6.48047 40.2891 6.99219 40.2891 8.01562V16.6055C40.2891 16.9961 40.3633 17.3203 40.5117 17.5781C40.668 17.8281 40.9219 17.9531 41.2734 17.9531ZM48.0938 21V0.375H52.3594V21H48.0938ZM58.9688 21.1875C57.7188 21.1875 56.7227 20.9531 55.9805 20.4844C55.2383 20.0156 54.707 19.3398 54.3867 18.457C54.0664 17.5742 53.9062 16.5117 53.9062 15.2695V8.20312C53.9062 6.57031 54.375 5.33594 55.3125 4.5C56.25 3.65625 57.5391 3.23438 59.1797 3.23438C62.5547 3.23438 64.2422 4.89062 64.2422 8.20312V9.48047C64.2422 11.0273 64.2266 12.0664 64.1953 12.5977H58.1016V15.9961C58.1016 16.3086 58.1211 16.6172 58.1602 16.9219C58.1992 17.2188 58.2852 17.4648 58.418 17.6602C58.5586 17.8555 58.7812 17.9531 59.0859 17.9531C59.5234 17.9531 59.7969 17.7656 59.9062 17.3906C60.0156 17.0078 60.0703 16.5117 60.0703 15.9023V14.2148H64.2422V15.2109C64.2422 16.5234 64.0781 17.625 63.75 18.5156C63.4297 19.3984 62.8828 20.0664 62.1094 20.5195C61.3438 20.9648 60.2969 21.1875 58.9688 21.1875ZM58.0781 10.5117H60.0703V8.14453C60.0703 7.51172 59.9922 7.05859 59.8359 6.78516C59.6797 6.50391 59.4453 6.36328 59.1328 6.36328C58.7969 6.36328 58.5352 6.49609 58.3477 6.76172C58.168 7.02734 58.0781 7.48828 58.0781 8.14453V10.5117ZM70.6875 21.1875C69.4375 21.1875 68.4414 20.9531 67.6992 20.4844C66.957 20.0156 66.4258 19.3398 66.1055 18.457C65.7852 17.5742 65.625 16.5117 65.625 15.2695V8.20312C65.625 6.57031 66.0938 5.33594 67.0312 4.5C67.9688 3.65625 69.2578 3.23438 70.8984 3.23438C74.2734 3.23438 75.9609 4.89062 75.9609 8.20312V9.48047C75.9609 11.0273 75.9453 12.0664 75.9141 12.5977H69.8203V15.9961C69.8203 16.3086 69.8398 16.6172 69.8789 16.9219C69.918 17.2188 70.0039 17.4648 70.1367 17.6602C70.2773 17.8555 70.5 17.9531 70.8047 17.9531C71.2422 17.9531 71.5156 17.7656 71.625 17.3906C71.7344 17.0078 71.7891 16.5117 71.7891 15.9023V14.2148H75.9609V15.2109C75.9609 16.5234 75.7969 17.625 75.4688 18.5156C75.1484 19.3984 74.6016 20.0664 73.8281 20.5195C73.0625 20.9648 72.0156 21.1875 70.6875 21.1875ZM69.7969 10.5117H71.7891V8.14453C71.7891 7.51172 71.7109 7.05859 71.5547 6.78516C71.3984 6.50391 71.1641 6.36328 70.8516 6.36328C70.5156 6.36328 70.2539 6.49609 70.0664 6.76172C69.8867 7.02734 69.7969 7.48828 69.7969 8.14453V10.5117Z" fill="#2F323C"/>
</svg>
