<svg width="113" height="36" viewBox="0 0 113 36" fill="none" xmlns="http://www.w3.org/2000/svg">
<path d="M0.371094 31V0.0625H8.54492C10.2559 0.0625 11.6094 0.443359 12.6055 1.20508C13.6133 1.9668 14.334 3.05078 14.7676 4.45703C15.2012 5.86328 15.418 7.53906 15.418 9.48438C15.418 11.3594 15.2363 12.9941 14.873 14.3887C14.5098 15.7715 13.8594 16.8438 12.9219 17.6055C11.9961 18.3672 10.6777 18.748 8.9668 18.748H6.45312V31H0.371094ZM6.45312 13.1934H6.80469C7.95312 13.1934 8.65625 12.8711 8.91406 12.2266C9.17188 11.582 9.30078 10.6328 9.30078 9.37891C9.30078 8.20703 9.17188 7.30469 8.91406 6.67188C8.66797 6.02734 8.07617 5.70508 7.13867 5.70508H6.45312V13.1934ZM24.9453 31.2812C19.6953 31.2812 17.0703 28.5566 17.0703 23.1074V12.5254C17.0703 10.041 17.7676 8.06055 19.1621 6.58398C20.5566 5.0957 22.4844 4.35156 24.9453 4.35156C27.418 4.35156 29.3516 5.0957 30.7461 6.58398C32.1406 8.06055 32.8379 10.041 32.8379 12.5254V23.1074C32.8379 28.5566 30.207 31.2812 24.9453 31.2812ZM24.9453 26.4297C25.4727 26.4297 25.8477 26.2422 26.0703 25.8672C26.3047 25.4805 26.4219 24.9941 26.4219 24.4082V11.5234C26.4219 9.98828 25.9297 9.2207 24.9453 9.2207C23.9609 9.2207 23.4688 9.98828 23.4688 11.5234V24.4082C23.4688 24.9941 23.5801 25.4805 23.8027 25.8672C24.0371 26.2422 24.418 26.4297 24.9453 26.4297ZM35.1758 35.3945V4.63281H41.5742V7.44531C41.9609 6.47266 42.4941 5.7168 43.1738 5.17773C43.8652 4.62695 44.8496 4.35156 46.127 4.35156C47.8496 4.35156 49.0625 4.97852 49.7656 6.23242C50.4805 7.48633 50.8379 9.12695 50.8379 11.1543V24.127C50.8379 25.4746 50.6445 26.6934 50.2578 27.7832C49.8828 28.8613 49.2852 29.7168 48.4648 30.3496C47.6562 30.9707 46.5957 31.2812 45.2832 31.2812C43.5723 31.2812 42.3359 30.25 41.5742 28.1875V35.3945H35.1758ZM43.0684 26.377C43.7246 26.377 44.1172 26.0488 44.2461 25.3926C44.3867 24.7363 44.457 23.9277 44.457 22.9668V12.666C44.457 11.6934 44.3867 10.8848 44.2461 10.2402C44.1172 9.58398 43.7246 9.25586 43.0684 9.25586C42.3887 9.25586 41.9668 9.58984 41.8027 10.2578C41.6504 10.9141 41.5742 11.7168 41.5742 12.666V22.9668C41.5742 23.916 41.6504 24.7246 41.8027 25.3926C41.9668 26.0488 42.3887 26.377 43.0684 26.377ZM60.9102 31.2812C55.6602 31.2812 53.0352 28.5566 53.0352 23.1074V12.5254C53.0352 10.041 53.7324 8.06055 55.127 6.58398C56.5215 5.0957 58.4492 4.35156 60.9102 4.35156C63.3828 4.35156 65.3164 5.0957 66.7109 6.58398C68.1055 8.06055 68.8027 10.041 68.8027 12.5254V23.1074C68.8027 28.5566 66.1719 31.2812 60.9102 31.2812ZM60.9102 26.4297C61.4375 26.4297 61.8125 26.2422 62.0352 25.8672C62.2695 25.4805 62.3867 24.9941 62.3867 24.4082V11.5234C62.3867 9.98828 61.8945 9.2207 60.9102 9.2207C59.9258 9.2207 59.4336 9.98828 59.4336 11.5234V24.4082C59.4336 24.9941 59.5449 25.4805 59.7676 25.8672C60.002 26.2422 60.3828 26.4297 60.9102 26.4297ZM71.1406 31V0.0625H77.5391V31H71.1406ZM87.4531 31.2812C85.5781 31.2812 84.084 30.9297 82.9707 30.2266C81.8574 29.5234 81.0605 28.5098 80.5801 27.1855C80.0996 25.8613 79.8594 24.2676 79.8594 22.4043V11.8047C79.8594 9.35547 80.5625 7.50391 81.9688 6.25C83.375 4.98438 85.3086 4.35156 87.7695 4.35156C92.832 4.35156 95.3633 6.83594 95.3633 11.8047V13.7207C95.3633 16.041 95.3398 17.5996 95.293 18.3965H86.1523V23.4941C86.1523 23.9629 86.1816 24.4258 86.2402 24.8828C86.2988 25.3281 86.4277 25.6973 86.627 25.9902C86.8379 26.2832 87.1719 26.4297 87.6289 26.4297C88.2852 26.4297 88.6953 26.1484 88.8594 25.5859C89.0234 25.0117 89.1055 24.2676 89.1055 23.3535V20.8223H95.3633V22.3164C95.3633 24.2852 95.1172 25.9375 94.625 27.2734C94.1445 28.5977 93.3242 29.5996 92.1641 30.2793C91.0156 30.9473 89.4453 31.2812 87.4531 31.2812ZM86.1172 15.2676H89.1055V11.7168C89.1055 10.7676 88.9883 10.0879 88.7539 9.67773C88.5195 9.25586 88.168 9.04492 87.6992 9.04492C87.1953 9.04492 86.8027 9.24414 86.5215 9.64258C86.252 10.041 86.1172 10.7324 86.1172 11.7168V15.2676ZM105.031 31.2812C103.156 31.2812 101.662 30.9297 100.549 30.2266C99.4355 29.5234 98.6387 28.5098 98.1582 27.1855C97.6777 25.8613 97.4375 24.2676 97.4375 22.4043V11.8047C97.4375 9.35547 98.1406 7.50391 99.5469 6.25C100.953 4.98438 102.887 4.35156 105.348 4.35156C110.41 4.35156 112.941 6.83594 112.941 11.8047V13.7207C112.941 16.041 112.918 17.5996 112.871 18.3965H103.73V23.4941C103.73 23.9629 103.76 24.4258 103.818 24.8828C103.877 25.3281 104.006 25.6973 104.205 25.9902C104.416 26.2832 104.75 26.4297 105.207 26.4297C105.863 26.4297 106.273 26.1484 106.438 25.5859C106.602 25.0117 106.684 24.2676 106.684 23.3535V20.8223H112.941V22.3164C112.941 24.2852 112.695 25.9375 112.203 27.2734C111.723 28.5977 110.902 29.5996 109.742 30.2793C108.594 30.9473 107.023 31.2812 105.031 31.2812ZM103.695 15.2676H106.684V11.7168C106.684 10.7676 106.566 10.0879 106.332 9.67773C106.098 9.25586 105.746 9.04492 105.277 9.04492C104.773 9.04492 104.381 9.24414 104.1 9.64258C103.83 10.041 103.695 10.7324 103.695 11.7168V15.2676Z" fill="#2F323C"/>
</svg>
