<svg width="57" height="18" viewBox="0 0 57 18" fill="none" xmlns="http://www.w3.org/2000/svg">
<path d="M0.685547 15.5V0.03125H4.77246C5.62793 0.03125 6.30469 0.22168 6.80273 0.602539C7.30664 0.983398 7.66699 1.52539 7.88379 2.22852C8.10059 2.93164 8.20898 3.76953 8.20898 4.74219C8.20898 5.67969 8.11816 6.49707 7.93652 7.19434C7.75488 7.88574 7.42969 8.42188 6.96094 8.80273C6.49805 9.18359 5.83887 9.37402 4.9834 9.37402H3.72656V15.5H0.685547ZM3.72656 6.59668H3.90234C4.47656 6.59668 4.82812 6.43555 4.95703 6.11328C5.08594 5.79102 5.15039 5.31641 5.15039 4.68945C5.15039 4.10352 5.08594 3.65234 4.95703 3.33594C4.83398 3.01367 4.53809 2.85254 4.06934 2.85254H3.72656V6.59668ZM12.9727 15.6406C10.3477 15.6406 9.03516 14.2783 9.03516 11.5537V6.2627C9.03516 5.02051 9.38379 4.03027 10.0811 3.29199C10.7783 2.54785 11.7422 2.17578 12.9727 2.17578C14.209 2.17578 15.1758 2.54785 15.873 3.29199C16.5703 4.03027 16.9189 5.02051 16.9189 6.2627V11.5537C16.9189 14.2783 15.6035 15.6406 12.9727 15.6406ZM12.9727 13.2148C13.2363 13.2148 13.4238 13.1211 13.5352 12.9336C13.6523 12.7402 13.7109 12.4971 13.7109 12.2041V5.76172C13.7109 4.99414 13.4648 4.61035 12.9727 4.61035C12.4805 4.61035 12.2344 4.99414 12.2344 5.76172V12.2041C12.2344 12.4971 12.29 12.7402 12.4014 12.9336C12.5186 13.1211 12.709 13.2148 12.9727 13.2148ZM18.0879 17.6973V2.31641H21.2871V3.72266C21.4805 3.23633 21.7471 2.8584 22.0869 2.58887C22.4326 2.31348 22.9248 2.17578 23.5635 2.17578C24.4248 2.17578 25.0312 2.48926 25.3828 3.11621C25.7402 3.74316 25.9189 4.56348 25.9189 5.57715V12.0635C25.9189 12.7373 25.8223 13.3467 25.6289 13.8916C25.4414 14.4307 25.1426 14.8584 24.7324 15.1748C24.3281 15.4854 23.7979 15.6406 23.1416 15.6406C22.2861 15.6406 21.668 15.125 21.2871 14.0938V17.6973H18.0879ZM22.0342 13.1885C22.3623 13.1885 22.5586 13.0244 22.623 12.6963C22.6934 12.3682 22.7285 11.9639 22.7285 11.4834V6.33301C22.7285 5.84668 22.6934 5.44238 22.623 5.12012C22.5586 4.79199 22.3623 4.62793 22.0342 4.62793C21.6943 4.62793 21.4834 4.79492 21.4014 5.12891C21.3252 5.45703 21.2871 5.8584 21.2871 6.33301V11.4834C21.2871 11.958 21.3252 12.3623 21.4014 12.6963C21.4834 13.0244 21.6943 13.1885 22.0342 13.1885ZM30.9551 15.6406C28.3301 15.6406 27.0176 14.2783 27.0176 11.5537V6.2627C27.0176 5.02051 27.3662 4.03027 28.0635 3.29199C28.7607 2.54785 29.7246 2.17578 30.9551 2.17578C32.1914 2.17578 33.1582 2.54785 33.8555 3.29199C34.5527 4.03027 34.9014 5.02051 34.9014 6.2627V11.5537C34.9014 14.2783 33.5859 15.6406 30.9551 15.6406ZM30.9551 13.2148C31.2188 13.2148 31.4062 13.1211 31.5176 12.9336C31.6348 12.7402 31.6934 12.4971 31.6934 12.2041V5.76172C31.6934 4.99414 31.4473 4.61035 30.9551 4.61035C30.4629 4.61035 30.2168 4.99414 30.2168 5.76172V12.2041C30.2168 12.4971 30.2725 12.7402 30.3838 12.9336C30.501 13.1211 30.6914 13.2148 30.9551 13.2148ZM36.0703 15.5V0.03125H39.2695V15.5H36.0703ZM44.2266 15.6406C43.2891 15.6406 42.542 15.4648 41.9854 15.1133C41.4287 14.7617 41.0303 14.2549 40.79 13.5928C40.5498 12.9307 40.4297 12.1338 40.4297 11.2021V5.90234C40.4297 4.67773 40.7812 3.75195 41.4844 3.125C42.1875 2.49219 43.1543 2.17578 44.3848 2.17578C46.916 2.17578 48.1816 3.41797 48.1816 5.90234V6.86035C48.1816 8.02051 48.1699 8.7998 48.1465 9.19824H43.5762V11.7471C43.5762 11.9814 43.5908 12.2129 43.6201 12.4414C43.6494 12.6641 43.7139 12.8486 43.8135 12.9951C43.9189 13.1416 44.0859 13.2148 44.3145 13.2148C44.6426 13.2148 44.8477 13.0742 44.9297 12.793C45.0117 12.5059 45.0527 12.1338 45.0527 11.6768V10.4111H48.1816V11.1582C48.1816 12.1426 48.0586 12.9688 47.8125 13.6367C47.5723 14.2988 47.1621 14.7998 46.582 15.1396C46.0078 15.4736 45.2227 15.6406 44.2266 15.6406ZM43.5586 7.63379H45.0527V5.8584C45.0527 5.38379 44.9941 5.04395 44.877 4.83887C44.7598 4.62793 44.584 4.52246 44.3496 4.52246C44.0977 4.52246 43.9014 4.62207 43.7607 4.82129C43.626 5.02051 43.5586 5.36621 43.5586 5.8584V7.63379ZM53.0156 15.6406C52.0781 15.6406 51.3311 15.4648 50.7744 15.1133C50.2178 14.7617 49.8193 14.2549 49.5791 13.5928C49.3389 12.9307 49.2188 12.1338 49.2188 11.2021V5.90234C49.2188 4.67773 49.5703 3.75195 50.2734 3.125C50.9766 2.49219 51.9434 2.17578 53.1738 2.17578C55.7051 2.17578 56.9707 3.41797 56.9707 5.90234V6.86035C56.9707 8.02051 56.959 8.7998 56.9355 9.19824H52.3652V11.7471C52.3652 11.9814 52.3799 12.2129 52.4092 12.4414C52.4385 12.6641 52.5029 12.8486 52.6025 12.9951C52.708 13.1416 52.875 13.2148 53.1035 13.2148C53.4316 13.2148 53.6367 13.0742 53.7188 12.793C53.8008 12.5059 53.8418 12.1338 53.8418 11.6768V10.4111H56.9707V11.1582C56.9707 12.1426 56.8477 12.9688 56.6016 13.6367C56.3613 14.2988 55.9512 14.7998 55.3711 15.1396C54.7969 15.4736 54.0117 15.6406 53.0156 15.6406ZM52.3477 7.63379H53.8418V5.8584C53.8418 5.38379 53.7832 5.04395 53.666 4.83887C53.5488 4.62793 53.373 4.52246 53.1387 4.52246C52.8867 4.52246 52.6904 4.62207 52.5498 4.82129C52.415 5.02051 52.3477 5.36621 52.3477 5.8584V7.63379Z" fill="#2F323C"/>
</svg>
