<svg width="40" height="36" viewBox="0 0 40 36" fill="none" xmlns="http://www.w3.org/2000/svg">
<path d="M1.51075 18.2536C1.49372 18.0856 1.49382 17.9158 1.51075 17.7478C1.51226 17.7326 1.51678 17.7179 1.51856 17.7028C1.52642 17.6368 1.53668 17.5709 1.54981 17.5056C1.55523 17.4785 1.56306 17.4522 1.56934 17.4255C1.58115 17.3753 1.5915 17.3246 1.60645 17.2751C1.61745 17.2387 1.63097 17.2033 1.64356 17.1677C1.65901 17.1239 1.67442 17.0799 1.69239 17.0368C1.70431 17.0083 1.71851 16.9808 1.73145 16.9528C1.75178 16.9088 1.77287 16.865 1.7959 16.822C1.83641 16.7463 1.87895 16.672 1.92676 16.6013L2.06153 16.4216L2.06542 16.4157C2.12392 16.3444 2.18702 16.277 2.25292 16.2126L16.2334 2.23213L16.4229 2.06025C17.4048 1.25984 18.8534 1.31701 19.7686 2.23213C20.6834 3.14729 20.7408 4.59603 19.9404 5.57783L19.7686 5.76729L10.0361 15.4997H36.001C37.3812 15.5002 38.5008 16.6194 38.501 17.9997C38.501 19.3801 37.3812 20.4991 36.001 20.4998H10.0361L19.7686 30.2322C20.7444 31.2084 20.7442 32.7911 19.7686 33.7673C18.7924 34.7435 17.2097 34.7431 16.2334 33.7673L2.25292 19.7888C2.18702 19.7244 2.12392 19.6569 2.06542 19.5856C2.0536 19.5712 2.0437 19.5553 2.03222 19.5407C1.94267 19.4265 1.86281 19.3045 1.79395 19.1755C1.77167 19.1337 1.75119 19.0913 1.73145 19.0485C1.7185 19.0205 1.70432 18.9931 1.69239 18.9646C1.6744 18.9215 1.65903 18.8775 1.64356 18.8337C1.63095 18.7981 1.61747 18.7626 1.60645 18.7263C1.58835 18.6664 1.57505 18.6054 1.56153 18.5446C1.55831 18.5302 1.55277 18.5162 1.54981 18.5016C1.5357 18.4324 1.52481 18.3627 1.51661 18.2927C1.51508 18.2796 1.51207 18.2667 1.51075 18.2536Z" fill="#2F323C"/>
</svg>
