<svg width="36" height="40" viewBox="0 0 36 40" fill="none" xmlns="http://www.w3.org/2000/svg">
<path d="M17.7461 1.51078C17.9141 1.49375 18.0839 1.49386 18.252 1.51078C18.2671 1.51229 18.2818 1.51681 18.2969 1.51859C18.3629 1.52646 18.4287 1.53671 18.4941 1.54984C18.5212 1.55526 18.5475 1.56309 18.5742 1.56937C18.6244 1.58119 18.6751 1.59153 18.7246 1.60648C18.761 1.61748 18.7964 1.631 18.832 1.64359C18.8759 1.65904 18.9198 1.67445 18.9629 1.69242C18.9914 1.70434 19.0189 1.71854 19.0469 1.73148C19.0909 1.75181 19.1347 1.77291 19.1777 1.79593C19.2534 1.83644 19.3277 1.87898 19.3984 1.92679L19.5781 2.06156L19.584 2.06546C19.6553 2.12396 19.7227 2.18706 19.7871 2.25296L33.7676 16.2334L33.9394 16.4229C34.7398 17.4048 34.6826 18.8535 33.7676 19.7686C32.8524 20.6834 31.4036 20.7408 30.4218 19.9405L30.2324 19.7686L20.5 10.0362V36.001C20.4994 37.3812 19.3803 38.5008 18 38.501C16.6196 38.501 15.5005 37.3812 15.5 36.001V10.0362L5.76758 19.7686C4.79142 20.7444 3.20866 20.7442 2.23242 19.7686C1.25623 18.7924 1.25648 17.2098 2.23242 16.2334L16.2109 2.25296C16.2753 2.18706 16.3428 2.12396 16.4141 2.06546C16.4285 2.05364 16.4444 2.04374 16.459 2.03226C16.5732 1.9427 16.6953 1.86285 16.8242 1.79398C16.866 1.7717 16.9085 1.75122 16.9512 1.73148C16.9791 1.71853 17.0066 1.70436 17.0352 1.69242C17.0782 1.67443 17.1222 1.65906 17.166 1.64359C17.2016 1.63098 17.2371 1.6175 17.2734 1.60648C17.3333 1.58838 17.3943 1.57508 17.4551 1.56156C17.4695 1.55834 17.4835 1.5528 17.498 1.54984C17.5673 1.53573 17.6371 1.52484 17.707 1.51664C17.7201 1.51512 17.733 1.5121 17.7461 1.51078Z" fill="#2F323C"/>
</svg>
