<svg width="33" height="36" viewBox="0 0 33 36" fill="none" xmlns="http://www.w3.org/2000/svg">
<g clip-path="url(#clip0_90_1609)">
<path d="M16.5 16.8224C21.0563 16.8224 24.75 13.0566 24.75 8.41121C24.75 3.76583 21.0563 0 16.5 0C11.9437 0 8.25 3.76583 8.25 8.41121C8.25 13.0566 11.9437 16.8224 16.5 16.8224Z" fill="#2F323C"/>
<path d="M2.4511 23.5049C2.94471 20.9888 5.11169 19.1775 7.62857 19.1775H25.3714C27.8883 19.1775 30.0553 20.9888 30.5489 23.5049L32.3684 32.7804C32.6953 34.446 31.4457 35.9999 29.7797 35.9999H3.22029C1.55433 35.9999 0.304834 34.446 0.631555 32.7804L2.4511 23.5049Z" fill="#2F323C"/>
</g>
<defs>
<clipPath id="clip0_90_1609">
<rect width="33" height="36" fill="white"/>
</clipPath>
</defs>
</svg>
