<svg width="31" height="36" viewBox="0 0 31 36" fill="none" xmlns="http://www.w3.org/2000/svg">
<g clip-path="url(#clip0_117_5098)">
<path d="M7.73823 1.7063C8.10556 0.897808 9.02479 0.509679 9.85232 0.785543L10.0163 0.849996L16.161 3.61395C17.6467 4.28226 18.1471 6.13709 17.197 7.45602L13.2673 12.9111C12.713 13.6801 11.6377 13.856 10.8648 13.3045C10.092 12.7529 9.91466 11.6824 10.4687 10.913L12.0471 8.7208C10.3872 9.2974 8.86126 10.2414 7.59443 11.5023C5.38387 13.7029 4.14164 16.6873 4.14157 19.7992C4.14157 22.9113 5.38372 25.8963 7.59443 28.0969C9.31335 29.808 11.509 30.9358 13.8703 31.3531C14.9964 31.5521 15.9306 32.4571 15.9306 33.5955C15.9304 34.7339 14.9993 35.6708 13.8653 35.5232C10.4024 35.0727 7.16281 33.4973 4.66632 31.0124C1.67875 28.0386 -5.03665e-07 24.0048 0 19.7992C7.11509e-05 15.5937 1.67882 11.5606 4.66632 8.58691C6.35157 6.90943 8.3754 5.64669 10.5781 4.8645L8.5985 3.97472C7.73182 3.58488 7.34675 2.56901 7.73823 1.7063ZM13.3573 17.3676C15.3116 17.3676 17.0069 18.528 17.0187 21.5863C17.0187 24.3754 15.5589 26.0863 13.3338 26.0863C11.4618 26.0863 10.2139 24.9027 10.0609 23.4262H12.2742C12.3919 23.9535 12.8157 24.1879 13.3338 24.1879C14.3227 24.1879 14.7818 23.2621 14.7936 21.8089H14.7347C14.4051 22.5942 13.5339 23.0512 12.5567 23.0512C11.0145 23.0512 9.97847 21.9262 9.96667 20.3793C9.95505 18.5748 11.3442 17.3676 13.3573 17.3676ZM21.5059 17.3676C23.8015 17.3676 25.2261 18.9498 25.2262 21.7269C25.2262 24.5161 23.8016 26.0863 21.5059 26.0863C19.2104 26.0862 17.7856 24.5041 17.7856 21.7269C17.7857 18.9382 19.2105 17.3677 21.5059 17.3676ZM21.5059 19.1605C20.6821 19.1608 20.1168 19.9696 20.105 21.7269C20.105 23.5314 20.682 24.2814 21.5059 24.2934C22.33 24.2816 22.9069 23.5316 22.9069 21.7269C22.9068 19.9693 22.33 19.1605 21.5059 19.1605ZM28.2543 17.4379C29.4198 17.4379 30.3734 18.3755 30.3735 19.5473C30.3735 20.7074 29.4199 21.6566 28.2543 21.6566C27.077 21.6566 26.1352 20.7074 26.1352 19.5473C26.1354 18.3755 27.0771 17.4379 28.2543 17.4379ZM13.3691 19.0668C12.651 19.0668 12.1331 19.5943 12.1447 20.2973C12.1565 21.0004 12.6509 21.5277 13.3691 21.5277C14.0637 21.5277 14.6052 20.9887 14.5935 20.2973C14.5815 19.5943 14.0636 19.0668 13.3691 19.0668ZM28.2543 18.8089C27.8424 18.8089 27.5128 19.1372 27.5127 19.5473C27.5127 19.9457 27.8423 20.2738 28.2543 20.2738C28.6546 20.2738 28.9843 19.9457 28.9843 19.5473C28.9841 19.1372 28.6545 18.809 28.2543 18.8089Z" fill="#2F323C"/>
</g>
<defs>
<clipPath id="clip0_117_5098">
<rect width="31" height="36" fill="white"/>
</clipPath>
</defs>
</svg>
