<svg width="38" height="38" viewBox="0 0 38 38" fill="none" xmlns="http://www.w3.org/2000/svg">
<g clip-path="url(#clip0_95_1668)">
<path d="M16.7648 0C26.0238 0 33.5296 7.50587 33.5296 16.7648C33.5296 20.5884 32.2487 24.1123 30.0937 26.9329L37.3454 34.1845C38.2181 35.0575 38.2183 36.4725 37.3454 37.3454C36.4725 38.2183 35.0575 38.2181 34.1845 37.3454L26.9329 30.0937C24.1123 32.2487 20.5884 33.5296 16.7648 33.5296C7.50587 33.5296 0 26.0238 0 16.7648C0 7.50587 7.50587 0 16.7648 0ZM16.7648 4.47062C9.97492 4.47062 4.47062 9.97492 4.47062 16.7648C4.47062 23.5547 9.97492 29.059 16.7648 29.059C23.5547 29.059 29.059 23.5547 29.059 16.7648C29.059 9.97492 23.5547 4.47062 16.7648 4.47062Z" fill="#7C8195"/>
</g>
<defs>
<clipPath id="clip0_95_1668">
<rect width="38" height="38" fill="white"/>
</clipPath>
</defs>
</svg>
