<svg width="42" height="36" viewBox="0 0 42 36" fill="none" xmlns="http://www.w3.org/2000/svg">
<g clip-path="url(#clip0_90_1635)">
<mask id="mask0_90_1635" style="mask-type:luminance" maskUnits="userSpaceOnUse" x="0" y="0" width="42" height="36">
<path d="M42 0H0V36H42V0Z" fill="white"/>
</mask>
<g mask="url(#mask0_90_1635)">
<path d="M12.2294 0.761718C12.2741 0.766242 12.3174 0.778059 12.3613 0.785157C12.3904 0.789888 12.4202 0.790989 12.4492 0.796875C12.4814 0.803397 12.5113 0.818292 12.5429 0.826173C12.6519 0.853284 12.7604 0.882138 12.8652 0.925782C13.0074 0.985164 13.1409 1.05953 13.2665 1.14551C13.3177 1.18051 13.3702 1.21421 13.4189 1.25391C13.4782 1.30222 13.5365 1.35392 13.5917 1.40918L22.5917 10.4092L22.747 10.5791C23.4675 11.4627 23.4151 12.7671 22.5917 13.5908C21.7681 14.4145 20.4638 14.4666 19.58 13.7461L19.4101 13.5908L14.2509 8.43165V33C14.2509 34.2423 13.2432 35.2497 12.0009 35.25C10.7583 35.25 9.75093 34.2426 9.75093 33V8.43165L4.59174 13.5908C3.71319 14.4694 2.28882 14.4691 1.41011 13.5908C0.531429 12.7121 0.531429 11.2879 1.41011 10.4092L10.4101 1.40918C10.5036 1.31569 10.6044 1.23374 10.709 1.16016C10.841 1.06735 10.983 0.988824 11.1337 0.925782C11.25 0.877281 11.3698 0.842595 11.4912 0.814452C11.511 0.809859 11.5297 0.800943 11.5498 0.796875C11.5567 0.795462 11.5633 0.792363 11.5702 0.791016C11.5808 0.788973 11.5919 0.789978 11.6025 0.788085C11.7317 0.765006 11.8651 0.75 12.0009 0.75L12.2294 0.761718ZM30.0009 0.75C31.2432 0.750423 32.2509 1.75762 32.2509 3V27.5684L37.41 22.4092C38.2887 21.5309 39.7131 21.5306 40.5918 22.4092C41.4699 23.2878 41.4699 24.7122 40.5918 25.5908L31.5918 34.5909C31.4976 34.6848 31.3923 34.7631 31.287 34.8369C31.2711 34.848 31.2564 34.8612 31.2402 34.872C31.1844 34.9092 31.1226 34.9344 31.0644 34.9659C31.0035 34.9989 30.9486 35.0415 30.8856 35.0685C30.8772 35.0721 30.8679 35.0736 30.8592 35.0772C30.7908 35.1054 30.7188 35.1204 30.6483 35.1417C30.5922 35.1585 30.5385 35.1819 30.4815 35.1942C30.4677 35.1972 30.4542 35.2005 30.4404 35.2032C30.4269 35.2059 30.4131 35.2065 30.3993 35.2089C30.312 35.2248 30.2235 35.2359 30.1329 35.2413C30.1143 35.2422 30.0957 35.2434 30.0771 35.244C30.0519 35.2449 30.0264 35.25 30.0009 35.25C29.9129 35.25 29.8256 35.2422 29.7402 35.2323C29.7047 35.2284 29.67 35.2206 29.6347 35.2149C29.6074 35.2104 29.5798 35.2086 29.5527 35.2032C29.5217 35.1969 29.4924 35.1843 29.4619 35.1768C29.3847 35.1579 29.3086 35.1366 29.2333 35.1093C29.2023 35.0982 29.1702 35.0898 29.1396 35.0772C29.104 35.0625 29.0717 35.0409 29.0371 35.0244C28.9661 34.9908 28.8968 34.9545 28.829 34.9131C28.8053 34.8984 28.7792 34.8876 28.7558 34.872C28.7371 34.8597 28.7185 34.8471 28.7002 34.8339C28.6599 34.8054 28.6187 34.7775 28.58 34.746L28.4101 34.5909L19.4101 25.5908C18.5314 24.7121 18.5314 23.2879 19.4101 22.4092C20.2888 21.5309 21.7132 21.5306 22.5917 22.4092L27.7509 27.5684V3C27.7509 1.75736 28.7583 0.75 30.0009 0.75Z" />
</g>
</g>
<defs>
<clipPath id="clip0_90_1635">
<rect width="42" height="36" fill="white"/>
</clipPath>
</defs>
</svg>
