<svg width="36" height="36" viewBox="0 0 36 36" fill="none" xmlns="http://www.w3.org/2000/svg">
<g clip-path="url(#clip0_90_1619)">
<path d="M35.113 16.6192C36.1841 17.6902 36.1841 19.427 35.113 20.498L20.4982 35.113C19.427 36.1841 17.6902 36.1841 16.6192 35.113L0.9677 19.4616C0.395258 18.8892 0.104934 18.0931 0.174471 17.2865L1.33445 3.83155C1.44901 2.50278 2.50279 1.449 3.83157 1.33444L17.2865 0.174455C18.0931 0.104919 18.889 0.395242 19.4616 0.967683L35.113 16.6192ZM7.2 4.62856C5.77984 4.62856 4.62858 5.77982 4.62858 7.19999C4.62858 8.62016 5.77984 9.77142 7.2 9.77142C8.62017 9.77142 9.77143 8.62016 9.77143 7.19999C9.77143 5.77982 8.62017 4.62856 7.2 4.62856Z" fill="#2F323C"/>
</g>
<defs>
<clipPath id="clip0_90_1619">
<rect width="36" height="36" fill="white"/>
</clipPath>
</defs>
</svg>
