<svg width="36" height="36" viewBox="0 0 36 36" fill="none" xmlns="http://www.w3.org/2000/svg">
<g clip-path="url(#clip0_90_1621)">
<path d="M18 0C27.9411 0 36 8.05888 36 18C36 27.9411 27.9411 36 18 36C8.05888 36 0 27.9411 0 18C0 8.05888 8.05888 0 18 0ZM18 5.64706C11.1777 5.64706 5.64706 11.1777 5.64706 18C5.64706 24.8224 11.1777 30.3529 18 30.3529C24.8224 30.3529 30.3529 24.8224 30.3529 18C30.3529 11.1777 24.8224 5.64706 18 5.64706ZM18 6.52941C19.5595 6.52941 20.8235 7.79354 20.8235 9.35294V16.1386L25.0082 18.5548C26.3587 19.3345 26.8214 21.0612 26.0416 22.4118C25.2619 23.7623 23.5352 24.225 22.1846 23.4452L17.2941 20.6216C17.0621 20.4877 16.8562 20.3259 16.6784 20.1427C15.785 19.6685 15.1765 18.729 15.1765 17.6471V9.35294C15.1765 7.79354 16.4406 6.52941 18 6.52941Z" fill="#2F323C"/>
</g>
<defs>
<clipPath id="clip0_90_1621">
<rect width="36" height="36" fill="white"/>
</clipPath>
</defs>
</svg>
